<?xml version="1.0" encoding="utf-8"?>
<svg viewBox="0 0 256 256" width="256" height="256" xmlns="http://www.w3.org/2000/svg">
  <path d="M 134.663 119.612 C 118.375 119.612 84.326 135.967 85.802 152.187 C 88.126 177.787 134.757 184.477 134.663 184.762 L 134.663 168.475 C 125.672 168.475 118.375 161.178 118.375 152.187 C 118.375 143.197 125.672 135.898 134.663 135.898 L 134.663 119.612 M 134.663 201.051 C 134.663 201.051 65.095 190.869 65.095 158.292 C 65.095 109.43 118.375 99.251 134.663 99.251 L 134.663 78.893 C 118.375 78.893 43.033 103.325 43.033 152.187 C 43.033 217.338 134.663 217.338 134.663 217.338 L 134.663 201.051 M 103.228 6.087 C 132.476 19.36 151.61 22.154 152.416 22.536 C 152.416 31.009 152.416 38.825 156.489 45.012 C 168.869 75.798 232.39 78.405 232.39 152.187 C 232.39 225.973 166.751 249.913 131.895 249.913 C 97.038 249.913 20.649 234.114 20.649 152.187 C 20.649 70.26 101.273 69.607 115.606 36.871 C 117.562 30.682 103.228 6.087 103.228 6.087" style="fill: rgb(169, 209, 89); stroke: rgb(91, 137, 48); paint-order: stroke; stroke-width: 5px; stroke-linecap: round;" transform="matrix(1, 0, 0, 1, 0, 7.105427357601002e-15)"/>
</svg>